#Comment line ignore any data following # character 
#Hierarchical Translation and Rotation (.htr) file 
[Header]	
#Header keywords are followed by a single value 
FileType HTR		#Single word string
DataType HTRS		#Translation followed by rotation and scale data
FileVersion 1		#integer
NumSegments 84		#integer
NumFrames 2		#integer
DataFrameRate 30		#integer, data frame rate in this file
EulerRotationOrder ZYX
CalibrationUnits mm
RotationUnits Degrees
GlobalAxisofGravity Y
BoneLengthAxis Y
ScaleFactor 1.00
[SegmentNames&Hierarchy]
#CHILD	PARENT
MASTER GLOBAL
root MASTER
chest root
L_mid_tent01 root
R_mid_tent01 root
spine01 root
Bip01_Neck chest
L_humerus chest
R_humerus chest
weapon_bone chest
Bip01_Head Bip01_Neck
eye_left_bone Bip01_Head
eye_right_bone Bip01_Head
L_forearm L_humerus
L_front_hand L_forearm
L_weapon_bone L_forearm
L_front_hand01_01 L_front_hand
L_front_hand02_01 L_front_hand
L_front_hand03_01 L_front_hand
L_front_hand01_02 L_front_hand01_01
L_front_hand02_02 L_front_hand02_01
L_front_hand03_02 L_front_hand03_01
R_forearm R_humerus
R_front_hand R_forearm
R_weapon_bone R_forearm
R_front_hand01_01 R_front_hand
R_front_hand02_01 R_front_hand
R_front_hand03_01 R_front_hand
R_front_hand01_02 R_front_hand01_01
R_front_hand02_02 R_front_hand02_01
R_front_hand03_02 R_front_hand03_01
null_rope01_connect L_mid_tent01
Rope1_Seg01 null_rope01_connect
Rope1_Seg02 Rope1_Seg01
Rope1_Seg03 Rope1_Seg02
Rope1_Seg04 Rope1_Seg03
Rope1_Seg05 Rope1_Seg04
Rope1_Seg06 Rope1_Seg05
Rope1_Seg07 Rope1_Seg06
Rope1_Seg09 Rope1_Seg07
L_mid_hand01 Rope1_Seg09
L_mid_hand02 Rope1_Seg09
L_mid_hand03 Rope1_Seg09
null_rope02_connect R_mid_tent01
Rope2_Seg01 null_rope02_connect
Rope2_Seg02 Rope2_Seg01
Rope2_Seg03 Rope2_Seg02
Rope2_Seg04 Rope2_Seg03
Rope2_Seg05 Rope2_Seg04
Rope2_Seg06 Rope2_Seg05
Rope2_Seg07 Rope2_Seg06
Rope2_Seg09 Rope2_Seg07
R_mid_hand01 Rope2_Seg09
R_mid_hand02 Rope2_Seg09
R_mid_hand03 Rope2_Seg09
spine02 spine01
spine03 spine02
pelvis spine03
null_rope03_connect pelvis
null_rope04_connect pelvis
Rope3_Seg01 null_rope03_connect
Rope3_Seg02 Rope3_Seg01
Rope3_Seg03 Rope3_Seg02
Rope3_Seg04 Rope3_Seg03
Rope3_Seg05 Rope3_Seg04
Rope3_Seg06 Rope3_Seg05
Rope3_Seg07 Rope3_Seg06
Rope3_Seg08 Rope3_Seg07
Rope3_Seg09 Rope3_Seg08
R_rear_hand01 Rope3_Seg09
R_rear_hand02 Rope3_Seg09
R_rear_hand03 Rope3_Seg09
Rope4_Seg01 null_rope04_connect
Rope4_Seg02 Rope4_Seg01
Rope4_Seg03 Rope4_Seg02
Rope4_Seg04 Rope4_Seg03
Rope4_Seg05 Rope4_Seg04
Rope4_Seg06 Rope4_Seg05
Rope4_Seg07 Rope4_Seg06
Rope4_Seg08 Rope4_Seg07
Rope4_Seg09 Rope4_Seg08
L_rear_hand01 Rope4_Seg09
L_rear_hand02 Rope4_Seg09
L_rear_hand03 Rope4_Seg09
[BasePosition]
#SegmentName Tx, Ty, Tz, Rx, Ry, Rz, BoneLength
MASTER 0.000000 0.000000 0.000000 -90.000000 0.000000 0.000000 10.000000 
root 0.000000 0.000000 0.000000 0.000000 0.000000 0.000000 10.000000 
chest 0.000000 0.000000 0.000000 0.000000 0.000000 0.000000 10.000000 
L_mid_tent01 0.000000 0.000000 0.000000 0.000000 0.000000 0.000000 10.000000 
R_mid_tent01 0.000000 0.000000 0.000000 0.000000 0.000000 0.000000 10.000000 
spine01 0.000000 0.000000 0.000000 0.000000 0.000000 0.000000 10.000000 
Bip01_Neck 0.000000 0.000000 0.000000 0.000000 0.000000 0.000000 10.000000 
L_humerus 0.000000 0.000000 0.000000 0.000000 0.000000 0.000000 10.000000 
R_humerus 0.000000 0.000000 0.000000 0.000000 0.000000 0.000000 10.000000 
weapon_bone 0.000000 0.000000 0.000000 0.000000 0.000000 0.000000 10.000000 
Bip01_Head 0.000000 0.000000 0.000000 0.000000 0.000000 0.000000 10.000000 
eye_left_bone 0.000000 0.000000 0.000000 0.000000 0.000000 0.000000 10.000000 
eye_right_bone 0.000000 0.000000 0.000000 0.000000 0.000000 0.000000 10.000000 
L_forearm 0.000000 0.000000 0.000000 0.000000 0.000000 0.000000 10.000000 
L_front_hand 0.000000 0.000000 0.000000 0.000000 0.000000 0.000000 10.000000 
L_weapon_bone 0.000000 0.000000 0.000000 0.000000 0.000000 0.000000 10.000000 
L_front_hand01_01 0.000000 0.000000 0.000000 0.000000 0.000000 0.000000 10.000000 
L_front_hand02_01 0.000000 0.000000 0.000000 0.000000 0.000000 0.000000 10.000000 
L_front_hand03_01 0.000000 0.000000 0.000000 0.000000 0.000000 0.000000 10.000000 
L_front_hand01_02 0.000000 0.000000 0.000000 0.000000 0.000000 0.000000 10.000000 
L_front_hand02_02 0.000000 0.000000 0.000000 0.000000 0.000000 0.000000 10.000000 
L_front_hand03_02 0.000000 0.000000 0.000000 0.000000 0.000000 0.000000 10.000000 
R_forearm 0.000000 0.000000 0.000000 0.000000 0.000000 0.000000 10.000000 
R_front_hand 0.000000 0.000000 0.000000 0.000000 0.000000 0.000000 10.000000 
R_weapon_bone 0.000000 0.000000 0.000000 0.000000 0.000000 0.000000 10.000000 
R_front_hand01_01 0.000000 0.000000 0.000000 0.000000 0.000000 0.000000 10.000000 
R_front_hand02_01 0.000000 0.000000 0.000000 0.000000 0.000000 0.000000 10.000000 
R_front_hand03_01 0.000000 0.000000 0.000000 0.000000 0.000000 0.000000 10.000000 
R_front_hand01_02 0.000000 0.000000 0.000000 0.000000 0.000000 0.000000 10.000000 
R_front_hand02_02 0.000000 0.000000 0.000000 0.000000 0.000000 0.000000 10.000000 
R_front_hand03_02 0.000000 0.000000 0.000000 0.000000 0.000000 0.000000 10.000000 
null_rope01_connect 0.000000 0.000000 0.000000 0.000000 0.000000 0.000000 10.000000 
Rope1_Seg01 0.000000 0.000000 0.000000 0.000000 0.000000 0.000000 10.000000 
Rope1_Seg02 0.000000 0.000000 0.000000 0.000000 0.000000 0.000000 10.000000 
Rope1_Seg03 0.000000 0.000000 0.000000 0.000000 0.000000 0.000000 10.000000 
Rope1_Seg04 0.000000 0.000000 0.000000 0.000000 0.000000 0.000000 10.000000 
Rope1_Seg05 0.000000 0.000000 0.000000 0.000000 0.000000 0.000000 10.000000 
Rope1_Seg06 0.000000 0.000000 0.000000 0.000000 0.000000 0.000000 10.000000 
Rope1_Seg07 0.000000 0.000000 0.000000 0.000000 0.000000 0.000000 10.000000 
Rope1_Seg09 0.000000 0.000000 0.000000 0.000000 0.000000 0.000000 10.000000 
L_mid_hand01 0.000000 0.000000 0.000000 0.000000 0.000000 0.000000 10.000000 
L_mid_hand02 0.000000 0.000000 0.000000 0.000000 0.000000 0.000000 10.000000 
L_mid_hand03 0.000000 0.000000 0.000000 0.000000 0.000000 0.000000 10.000000 
null_rope02_connect 0.000000 0.000000 0.000000 0.000000 0.000000 0.000000 10.000000 
Rope2_Seg01 0.000000 0.000000 0.000000 0.000000 0.000000 0.000000 10.000000 
Rope2_Seg02 0.000000 0.000000 0.000000 0.000000 0.000000 0.000000 10.000000 
Rope2_Seg03 0.000000 0.000000 0.000000 0.000000 0.000000 0.000000 10.000000 
Rope2_Seg04 0.000000 0.000000 0.000000 0.000000 0.000000 0.000000 10.000000 
Rope2_Seg05 0.000000 0.000000 0.000000 0.000000 0.000000 0.000000 10.000000 
Rope2_Seg06 0.000000 0.000000 0.000000 0.000000 0.000000 0.000000 10.000000 
Rope2_Seg07 0.000000 0.000000 0.000000 0.000000 0.000000 0.000000 10.000000 
Rope2_Seg09 0.000000 0.000000 0.000000 0.000000 0.000000 0.000000 10.000000 
R_mid_hand01 0.000000 0.000000 0.000000 0.000000 0.000000 0.000000 10.000000 
R_mid_hand02 0.000000 0.000000 0.000000 0.000000 0.000000 0.000000 10.000000 
R_mid_hand03 0.000000 0.000000 0.000000 0.000000 0.000000 0.000000 10.000000 
spine02 0.000000 0.000000 0.000000 0.000000 0.000000 0.000000 10.000000 
spine03 0.000000 0.000000 0.000000 0.000000 0.000000 0.000000 10.000000 
pelvis 0.000000 0.000000 0.000000 0.000000 0.000000 0.000000 10.000000 
null_rope03_connect 0.000000 0.000000 0.000000 0.000000 0.000000 0.000000 10.000000 
null_rope04_connect 0.000000 0.000000 0.000000 0.000000 0.000000 0.000000 10.000000 
Rope3_Seg01 0.000000 0.000000 0.000000 0.000000 0.000000 0.000000 10.000000 
Rope3_Seg02 0.000000 0.000000 0.000000 0.000000 0.000000 0.000000 10.000000 
Rope3_Seg03 0.000000 0.000000 0.000000 0.000000 0.000000 0.000000 10.000000 
Rope3_Seg04 0.000000 0.000000 0.000000 0.000000 0.000000 0.000000 10.000000 
Rope3_Seg05 0.000000 0.000000 0.000000 0.000000 0.000000 0.000000 10.000000 
Rope3_Seg06 0.000000 0.000000 0.000000 0.000000 0.000000 0.000000 10.000000 
Rope3_Seg07 0.000000 0.000000 0.000000 0.000000 0.000000 0.000000 10.000000 
Rope3_Seg08 0.000000 0.000000 0.000000 0.000000 0.000000 0.000000 10.000000 
Rope3_Seg09 0.000000 0.000000 0.000000 0.000000 0.000000 0.000000 10.000000 
R_rear_hand01 0.000000 0.000000 0.000000 0.000000 0.000000 0.000000 10.000000 
R_rear_hand02 0.000000 0.000000 0.000000 0.000000 0.000000 0.000000 10.000000 
R_rear_hand03 0.000000 0.000000 0.000000 0.000000 0.000000 0.000000 10.000000 
Rope4_Seg01 0.000000 0.000000 0.000000 0.000000 0.000000 0.000000 10.000000 
Rope4_Seg02 0.000000 0.000000 0.000000 0.000000 0.000000 0.000000 10.000000 
Rope4_Seg03 0.000000 0.000000 0.000000 0.000000 0.000000 0.000000 10.000000 
Rope4_Seg04 0.000000 0.000000 0.000000 0.000000 0.000000 0.000000 10.000000 
Rope4_Seg05 0.000000 0.000000 0.000000 0.000000 0.000000 0.000000 10.000000 
Rope4_Seg06 0.000000 0.000000 0.000000 0.000000 0.000000 0.000000 10.000000 
Rope4_Seg07 0.000000 0.000000 0.000000 0.000000 0.000000 0.000000 10.000000 
Rope4_Seg08 0.000000 0.000000 0.000000 0.000000 0.000000 0.000000 10.000000 
Rope4_Seg09 0.000000 0.000000 0.000000 0.000000 0.000000 0.000000 10.000000 
L_rear_hand01 0.000000 0.000000 0.000000 0.000000 0.000000 0.000000 10.000000 
L_rear_hand02 0.000000 0.000000 0.000000 0.000000 0.000000 0.000000 10.000000 
L_rear_hand03 0.000000 0.000000 0.000000 0.000000 0.000000 0.000000 10.000000 
#Beginning of Data. Separated by tabs
#Fr	Tx	Ty	Tz	Rx	Ry	Rz	SF
[MASTER]
1 0.000000 -0.000015 0.000000 0.001660 0.001660 0.001660 0.000015
2 0.000000 -0.000015 0.000000 0.001660 0.001660 0.001660 0.000015
[root]
1 20.013220 -118.897346 462.015289 -9.459935 8.899052 -99.199364 477.488495
2 20.013220 -118.897346 462.015289 -9.459935 8.899052 -99.199364 477.488495
[chest]
1 -84.512650 -34.090519 0.000000 56.216106 28.415461 -166.794235 91.129311
2 -84.512650 -34.090519 0.000000 56.216106 28.415461 -166.794235 91.129311
[L_mid_tent01]
1 27.298927 22.179342 -249.918732 -7.736674 17.262026 61.276600 252.381714
2 27.298939 22.179331 -249.918732 -7.736674 17.262026 61.276600 252.381714
[R_mid_tent01]
1 23.228794 24.509907 226.238495 153.619827 -42.585861 59.937931 228.744751
2 23.228794 24.509907 226.238495 153.619827 -42.585861 59.937931 228.744751
[spine01]
1 -0.361383 -0.195265 0.000000 0.001766 0.001546 7.583981 0.410763
2 -0.361383 -0.195265 0.000000 0.001754 0.001560 6.711847 0.410763
[Bip01_Neck]
1 165.484543 71.581718 0.000119 176.643677 -1.657967 43.431911 180.302734
2 165.484543 71.581718 0.000119 176.643677 -1.657967 43.431915 180.302734
[L_humerus]
1 -13.983130 -135.272980 -120.471481 138.211868 78.224884 -130.763168 181.680161
2 -13.983130 -135.272980 -120.471481 138.211868 78.224884 -130.763168 181.680161
[R_humerus]
1 -13.983309 -135.273102 125.287651 -171.749252 -69.053596 -93.243614 184.909012
2 -13.983309 -135.273102 125.287651 -171.749252 -69.053596 -93.243614 184.909012
[weapon_bone]
1 235.964890 -300.705902 0.000000 0.000000 -89.951546 -128.212341 382.234833
2 235.964890 -300.705902 0.000000 0.000000 -89.951546 -128.212341 382.234833
[Bip01_Head]
1 213.329071 186.036392 7.636128 7.212303 0.760416 -38.184608 283.155670
2 213.333115 186.025070 7.782139 7.212303 0.760416 -38.184608 283.155273
[eye_left_bone]
1 -24.626970 125.451866 -64.772606 0.000000 -90.000000 -99.840431 143.318359
2 -24.626970 125.451866 -64.772606 0.000000 -90.000000 -99.840431 143.318359
[eye_right_bone]
1 -24.626970 125.451866 64.327362 0.000000 -89.965736 80.156380 143.117676
2 -24.626970 125.451866 64.327362 0.000000 -89.965736 80.156380 143.117676
[L_forearm]
1 322.776093 0.000000 -0.000119 0.000431 -0.002307 -111.155762 322.776093
2 322.776093 0.000000 -0.000119 0.000430 -0.002308 -111.107796 322.776093
[L_front_hand]
1 241.149185 -0.042021 -3.300071 -178.667953 -1.835447 -27.422350 241.171753
2 241.149185 -0.042021 -3.300071 -178.667953 -1.835447 -27.422344 241.171753
[L_weapon_bone]
1 156.183838 0.000000 0.000000 0.000014 0.000007 0.000001 156.183838
2 156.183838 0.000000 0.000000 0.000014 0.000007 0.000001 156.183838
[L_front_hand01_01]
1 86.095154 20.947098 -0.655860 -0.307662 -0.512638 68.898659 88.609184
2 86.095154 20.947098 -0.655860 -0.320916 -0.506937 70.186226 88.609184
[L_front_hand02_01]
1 86.935165 -11.437475 24.513514 145.311661 -56.611855 -50.692310 91.046425
2 86.935165 -11.437475 24.513514 146.956512 -57.330299 -52.653660 91.046425
[L_front_hand03_01]
1 86.637497 -14.123976 -20.424902 -145.445221 54.832184 -52.559975 90.126129
2 86.637497 -14.123976 -20.424902 -146.987762 55.547066 -54.435081 90.126129
[L_front_hand01_02]
1 71.020905 -0.000179 0.000030 0.000318 -0.002326 -105.568306 71.020905
2 71.020905 -0.000179 0.000030 0.000320 -0.002325 -105.659508 71.020905
[L_front_hand02_02]
1 71.020927 -0.000119 0.000060 0.000318 -0.002326 -105.568306 71.020927
2 71.020927 -0.000119 0.000060 0.000320 -0.002325 -105.659508 71.020927
[L_front_hand03_02]
1 71.020905 -0.000060 0.000060 0.000318 -0.002326 -105.568306 71.020905
2 71.020905 -0.000060 0.000060 0.000320 -0.002325 -105.659508 71.020905
[R_forearm]
1 322.776428 -0.000060 0.000030 0.201080 0.068247 -109.819130 322.776428
2 322.776428 -0.000060 0.000030 0.201113 0.068152 -109.764709 322.776428
[R_front_hand]
1 238.847015 -0.006795 2.210259 -2.635298 -10.645461 -26.312506 238.857239
2 238.847015 -0.006795 2.210259 -2.635298 -10.645461 -26.312506 238.857239
[R_weapon_bone]
1 155.664093 0.002503 -0.000030 0.003487 0.001180 -90.988930 155.664078
2 155.664093 0.002503 -0.000030 0.003487 0.001180 -90.988930 155.664078
[R_front_hand01_01]
1 87.624611 14.231146 22.918642 -147.366226 -57.494873 53.245708 91.683487
2 87.624611 14.231146 22.918642 -150.820541 -58.784569 57.311836 91.683487
[R_front_hand02_01]
1 89.356956 14.367283 -19.491137 147.772629 55.873177 55.617874 92.579636
2 89.356956 14.367283 -19.491137 151.027069 57.144753 59.518578 92.579636
[R_front_hand03_01]
1 87.286232 -22.307278 -0.143439 0.124412 -0.437303 -70.732681 90.091743
2 87.286232 -22.307278 -0.143439 0.144811 -0.432555 -73.232849 90.091743
[R_front_hand01_02]
1 71.020905 0.000060 0.000119 0.002323 -0.000334 106.381714 71.020905
2 71.020905 0.000060 0.000119 0.002323 -0.000334 106.381714 71.020905
[R_front_hand02_02]
1 71.020844 -0.000030 -0.000119 0.002323 -0.000334 106.381714 71.020836
2 71.020844 -0.000030 -0.000119 0.002323 -0.000334 106.381714 71.020836
[R_front_hand03_02]
1 71.020905 0.000000 0.000030 0.002323 -0.000334 106.381714 71.020905
2 71.020905 0.000000 0.000030 0.002323 -0.000334 106.381714 71.020905
[null_rope01_connect]
1 328.732483 0.000000 -0.000238 -15.047215 -26.242031 38.140869 328.732483
2 328.732483 0.000000 -0.000238 -15.047215 -26.242031 38.140869 328.732483
[Rope1_Seg01]
1 -0.000038 -0.000067 0.000000 -30.297474 54.837891 145.707932 0.000077
2 -0.000033 -0.000066 0.000007 -30.297474 54.837891 145.707932 0.000074
[Rope1_Seg02]
1 139.999863 -0.000179 0.000000 -1.793221 15.759163 -20.449539 139.999863
2 139.999863 -0.000179 0.000000 -1.793221 15.759163 -20.449539 139.999863
[Rope1_Seg03]
1 139.999924 0.000060 -0.000060 3.244791 14.006948 -19.559944 139.999924
2 139.999924 0.000060 -0.000060 3.244791 14.006948 -19.559944 139.999924
[Rope1_Seg04]
1 139.999924 -0.000060 -0.000119 26.731756 7.621090 -12.208051 139.999924
2 139.999924 -0.000060 -0.000119 26.731756 7.621090 -12.208051 139.999924
[Rope1_Seg05]
1 139.999832 0.000119 -0.000060 134.829956 2.705867 -14.629753 139.999832
2 139.999832 0.000119 -0.000060 134.829956 2.705867 -14.629753 139.999832
[Rope1_Seg06]
1 139.999954 0.000119 -0.000060 7.183026 -12.364391 8.488519 139.999954
2 139.999954 0.000119 -0.000060 7.183026 -12.364391 8.488519 139.999954
[Rope1_Seg07]
1 139.999985 0.000060 0.000000 0.873841 -7.073908 6.680779 139.999985
2 139.999985 0.000060 0.000000 0.873841 -7.073908 6.680779 139.999985
[Rope1_Seg09]
1 121.602913 0.000119 -0.000089 -89.793175 -1.359789 0.847147 121.602913
2 121.602913 0.000119 -0.000089 -89.793175 -1.359789 0.847147 121.602913
[L_mid_hand01]
1 103.859421 1.038730 8.195221 111.744148 -47.990250 -17.037849 104.187431
2 103.859421 1.038730 8.195221 113.348808 -51.271084 -19.140949 104.187431
[L_mid_hand02]
1 105.572853 -4.139662 -10.864139 -151.194321 35.548130 -46.000305 106.211075
2 105.572853 -4.139662 -10.864139 -153.514084 37.197781 -49.904964 106.211075
[L_mid_hand03]
1 104.641464 17.579376 -3.913581 -12.464005 14.143583 51.774380 106.179977
2 104.641464 17.579376 -3.913581 -11.562670 14.886231 55.361916 106.179977
[null_rope02_connect]
1 328.732849 0.000179 -0.000119 -143.324875 -5.497923 -48.611988 328.732849
2 328.732849 0.000179 -0.000119 -143.324875 -5.497923 -48.611988 328.732849
[Rope2_Seg01]
1 0.000057 0.000153 0.000000 -12.422688 -40.293621 173.173752 0.000163
2 0.000055 0.000159 0.000000 -12.422688 -40.293621 173.173752 0.000168
[Rope2_Seg02]
1 139.999741 -0.000060 -0.000119 12.284292 -13.295395 -23.514729 139.999756
2 139.999741 -0.000060 -0.000119 12.284292 -13.295395 -23.514729 139.999756
[Rope2_Seg03]
1 140.000107 0.000030 0.000000 12.982192 -22.444635 -30.086658 140.000107
2 140.000107 0.000030 0.000000 12.982192 -22.444635 -30.086658 140.000107
[Rope2_Seg04]
1 139.999802 0.000000 -0.000060 1.963210 -13.380668 -13.581172 139.999802
2 139.999802 0.000000 -0.000060 1.963210 -13.380668 -13.581172 139.999802
[Rope2_Seg05]
1 139.999985 -0.000060 0.000119 -0.321277 -7.587950 -5.977221 139.999985
2 139.999985 -0.000060 0.000119 -0.321277 -7.587950 -5.977221 139.999985
[Rope2_Seg06]
1 139.999893 -0.000030 -0.000119 -2.092650 -16.842157 -11.339480 139.999893
2 139.999893 -0.000030 -0.000119 -2.092650 -16.842157 -11.339480 139.999893
[Rope2_Seg07]
1 139.999893 0.000060 -0.000060 -8.880858 -25.695259 -21.993139 139.999893
2 139.999893 0.000060 -0.000060 -8.880858 -25.695259 -21.993139 139.999893
[Rope2_Seg09]
1 121.338966 0.000089 -0.000060 33.793236 -1.359788 -0.847141 121.338966
2 121.338966 0.000089 -0.000060 33.793236 -1.359788 -0.847141 121.338966
[R_mid_hand01]
1 104.680779 11.144459 -10.335981 -37.204079 31.906813 37.576260 105.778534
2 104.680779 11.144459 -10.335981 -37.204079 31.906813 37.576260 105.778534
[R_mid_hand02]
1 104.070427 2.443552 8.231699 70.367462 -42.427391 14.067809 104.424065
2 104.070427 2.443552 8.231699 70.367462 -42.427391 14.067809 104.424065
[R_mid_hand03]
1 106.028137 -11.221827 -5.996406 -169.893616 12.226661 -47.211018 106.788818
2 106.028137 -11.221827 -5.996406 -169.893616 12.226661 -47.211018 106.788818
[spine02]
1 129.756927 0.001550 0.000119 0.537033 -4.023988 -15.429607 129.756927
2 129.756927 0.001550 0.000119 0.532120 -4.024647 -15.359535 129.756927
[spine03]
1 78.614067 0.080886 -4.899025 2.000092 3.776574 18.062283 78.766609
2 78.614044 0.080918 -4.899016 2.000092 3.776574 18.062283 78.766579
[pelvis]
1 169.435242 0.051022 0.000000 -0.013253 -0.191220 0.046194 169.435257
2 169.435242 0.051022 0.000000 -0.013253 -0.191220 0.046194 169.435257
[null_rope03_connect]
1 -1.257226 -2.466202 137.391083 -9.904063 -6.669460 88.870102 137.418976
2 -1.257226 -2.466202 137.391083 -9.891251 -6.679482 89.683273 137.418976
[null_rope04_connect]
1 -1.259640 -2.480268 -137.844437 -9.904063 -6.669460 88.870102 137.872513
2 -1.259640 -2.480268 -137.844437 -9.891251 -6.679482 89.683273 137.872513
[Rope3_Seg01]
1 0.000000 0.000000 0.000000 50.254963 -46.364170 -115.458916 0.000000
2 0.000000 0.000000 0.000000 49.191334 -46.566925 -114.073997 0.000000
[Rope3_Seg02]
1 139.999924 -0.000119 0.000060 6.340510 -2.977570 17.461464 139.999924
2 139.999924 -0.000119 0.000060 6.150808 -3.096845 17.519051 139.999924
[Rope3_Seg03]
1 139.999924 -0.000119 0.000119 3.196692 -1.547439 22.831594 139.999924
2 139.999924 -0.000119 0.000119 2.983369 -1.765380 22.611246 139.999924
[Rope3_Seg04]
1 139.999924 0.000119 0.000000 -0.796809 -2.295157 18.199108 139.999924
2 139.999924 0.000119 0.000000 -0.913174 -2.578858 17.809120 139.999924
[Rope3_Seg05]
1 139.999924 -0.000238 0.000060 -1.140374 1.466163 12.163121 139.999924
2 139.999924 -0.000238 0.000060 -1.164003 1.393108 12.078931 139.999924
[Rope3_Seg06]
1 139.999893 -0.000119 -0.000060 -1.053425 6.531861 17.472511 139.999893
2 139.999893 -0.000119 -0.000060 -1.049329 6.608768 17.603056 139.999893
[Rope3_Seg07]
1 139.999771 0.000060 -0.000119 -6.460755 7.252929 21.363239 139.999771
2 139.999771 0.000060 -0.000119 -6.529547 7.240002 21.350090 139.999771
[Rope3_Seg08]
1 139.999985 -0.000060 0.000000 -14.238792 1.850384 12.623249 139.999985
2 139.999985 -0.000060 0.000000 -14.337379 1.821059 12.581511 139.999985
[Rope3_Seg09]
1 90.185997 -0.000179 -0.000060 89.793228 -1.359877 -0.847183 90.185997
2 90.185997 -0.000179 -0.000060 89.793228 -1.359877 -0.847183 90.185997
[R_rear_hand01]
1 103.366196 -6.073594 -10.757982 -164.755127 19.627697 -40.352165 104.101845
2 103.366196 -6.073594 -10.757982 -165.009155 19.819437 -41.100956 104.101845
[R_rear_hand02]
1 100.509819 12.039542 -7.992327 -30.792652 24.782450 38.141541 101.543350
2 100.509819 12.039542 -7.992327 -30.502344 25.155792 38.836960 101.543350
[R_rear_hand03]
1 101.539970 5.215704 5.435467 82.448357 -41.048256 8.840384 101.819031
2 101.539970 5.215704 5.435467 82.364601 -41.773376 8.967985 101.819031
[Rope4_Seg01]
1 -0.000019 -0.000038 0.000000 -126.573311 39.110519 -140.339294 0.000043
2 -0.000020 -0.000050 0.000000 -126.721474 39.815891 -139.801895 0.000054
[Rope4_Seg02]
1 139.999985 0.000060 0.000119 -8.223769 -19.501144 5.472857 139.999985
2 139.999985 0.000060 0.000119 -8.003884 -19.831280 5.314128 139.999985
[Rope4_Seg03]
1 139.999924 0.000000 -0.000238 -4.761764 -33.881638 6.452689 139.999924
2 139.999924 0.000000 -0.000238 -4.315847 -33.572464 6.076690 139.999924
[Rope4_Seg04]
1 139.999985 0.000000 0.000119 3.301083 -23.728275 4.446287 139.999985
2 139.999985 0.000000 0.000119 3.352510 -23.126415 4.241056 139.999985
[Rope4_Seg05]
1 139.999802 -0.000060 -0.000119 4.894516 -16.865356 -0.584244 139.999802
2 139.999802 -0.000060 -0.000119 4.896389 -16.833284 -0.633167 139.999802
[Rope4_Seg06]
1 139.999924 0.000000 0.000060 15.983582 -25.574976 -2.757822 139.999924
2 139.999924 0.000000 0.000060 16.188517 -25.595636 -2.731251 139.999924
[Rope4_Seg07]
1 139.999802 0.000000 0.000000 41.694916 -17.716909 4.019561 139.999802
2 139.999802 0.000000 0.000000 41.882195 -17.608944 4.081993 139.999802
[Rope4_Seg08]
1 139.999924 0.000000 0.000119 30.076763 -5.043314 7.460536 139.999924
2 139.999924 0.000000 0.000119 29.982195 -4.978395 7.475123 139.999924
[Rope4_Seg09]
1 90.185791 0.000060 0.000060 -135.617828 2.228885 0.850567 90.185791
2 90.185791 0.000060 0.000060 -135.617828 2.228885 0.850567 90.185791
[L_rear_hand01]
1 101.696655 -8.392275 -7.654577 -25.544088 -30.184177 130.529022 102.329041
2 101.696655 -8.392275 -7.654577 -23.837217 -31.499481 127.200775 102.329041
[L_rear_hand02]
1 102.726799 -1.568258 5.773216 80.674576 52.328754 168.732666 102.900848
2 102.726799 -1.568258 5.773216 79.948715 55.429344 167.833466 102.900848
[L_rear_hand03]
1 104.552910 9.721220 -10.420293 -169.017776 -22.226934 -127.757065 105.519653
2 104.552910 9.721220 -10.420293 -170.301910 -22.790922 -124.407417 105.519653
